<mxfile host="app.diagrams.net" agent="Mozilla/5.0 (Windows NT 10.0; Win64; x64) AppleWebKit/537.36 (KHTML, like Gecko) Chrome/130.0.0.0 Safari/537.36 Edg/130.0.0.0" version="24.8.3">
  <diagram id="07fea595-8f29-1299-0266-81d95cde20df" name="Page-1">
    <mxGraphModel dx="-745" dy="196" grid="1" gridSize="10" guides="1" tooltips="1" connect="1" arrows="1" fold="1" page="1" pageScale="1" pageWidth="1169" pageHeight="827" background="none" math="0" shadow="0">
      <root>
        <mxCell id="0" />
        <mxCell id="1" parent="0" />
        <mxCell id="727" value="" style="edgeStyle=none;html=1;fontColor=#000000;strokeWidth=3;strokeColor=#000000;" parent="1" edge="1">
          <mxGeometry width="100" height="100" relative="1" as="geometry">
            <mxPoint x="2437.5" y="1594.5" as="sourcePoint" />
            <mxPoint x="2437.5" y="1114.5" as="targetPoint" />
          </mxGeometry>
        </mxCell>
        <mxCell id="734" value="" style="edgeStyle=none;html=1;fontColor=#000000;strokeWidth=3;strokeColor=#000000;" parent="1" edge="1">
          <mxGeometry width="100" height="100" relative="1" as="geometry">
            <mxPoint x="2437.5" y="1594.5" as="sourcePoint" />
            <mxPoint x="3357.5" y="1594.5" as="targetPoint" />
          </mxGeometry>
        </mxCell>
        <mxCell id="735" value="年份" style="text;spacingTop=-5;html=1;fontSize=18;fontStyle=0;points=[];strokeColor=none;" parent="1" vertex="1">
          <mxGeometry x="3367.5" y="1582.5" width="80" height="20" as="geometry" />
        </mxCell>
        <mxCell id="736" value="2014" style="text;spacingTop=-5;align=center;verticalAlign=middle;fontStyle=0;html=1;fontSize=18;points=[];strokeColor=none;" parent="1" vertex="1">
          <mxGeometry x="2435.5" y="1596.5" width="120" height="30" as="geometry" />
        </mxCell>
        <mxCell id="737" value="2015" style="text;spacingTop=-5;align=center;verticalAlign=middle;fontStyle=0;html=1;fontSize=18;points=[];strokeColor=none;" parent="1" vertex="1">
          <mxGeometry x="2520" y="1596.5" width="120" height="30" as="geometry" />
        </mxCell>
        <mxCell id="738" value="2016" style="text;spacingTop=-5;align=center;verticalAlign=middle;fontStyle=0;html=1;fontSize=18;points=[];strokeColor=none;" parent="1" vertex="1">
          <mxGeometry x="2600" y="1596.5" width="120" height="30" as="geometry" />
        </mxCell>
        <mxCell id="745" value="万亿元" style="text;spacingTop=-5;html=1;fontSize=18;fontStyle=0;points=[]" parent="1" vertex="1">
          <mxGeometry x="2405.5" y="1090" width="80" height="20" as="geometry" />
        </mxCell>
        <mxCell id="746" value="10" style="text;spacingTop=-5;align=center;verticalAlign=middle;fontStyle=0;html=1;fontSize=18;points=[]" parent="1" vertex="1">
          <mxGeometry x="2405.5" y="1480" width="30" height="84.5" as="geometry" />
        </mxCell>
        <mxCell id="747" value="20" style="text;spacingTop=-5;align=center;verticalAlign=middle;fontStyle=0;html=1;fontSize=18;points=[]" parent="1" vertex="1">
          <mxGeometry x="2405.5" y="1374.5" width="30" height="129.99999999999977" as="geometry" />
        </mxCell>
        <mxCell id="748" value="30" style="text;spacingTop=-5;align=center;verticalAlign=middle;fontStyle=0;html=1;fontSize=18;points=[]" parent="1" vertex="1">
          <mxGeometry x="2405.5" y="1294.5" width="30" height="129.99999999999977" as="geometry" />
        </mxCell>
        <mxCell id="749" value="&lt;font style=&quot;font-size: 30px;&quot;&gt;中国近年数字经济规模&lt;/font&gt;" style="text;spacingTop=-5;align=center;verticalAlign=middle;fontSize=30;fontStyle=1;html=1;points=[]" parent="1" vertex="1">
          <mxGeometry x="2485.5" y="990" width="810" height="45" as="geometry" />
        </mxCell>
        <mxCell id="752" value="2017" style="text;spacingTop=-5;align=center;verticalAlign=middle;fontStyle=0;html=1;fontSize=18;points=[];strokeColor=none;" parent="1" vertex="1">
          <mxGeometry x="2680" y="1596.5" width="120" height="30" as="geometry" />
        </mxCell>
        <mxCell id="lbe4m9ubsCiE2F9bmE8v-752" value="0" style="text;spacingTop=-5;align=center;verticalAlign=middle;fontStyle=0;html=1;fontSize=18;points=[]" parent="1" vertex="1">
          <mxGeometry x="2405.5" y="1550.25" width="30" height="84.5" as="geometry" />
        </mxCell>
        <mxCell id="lbe4m9ubsCiE2F9bmE8v-753" value="40" style="text;spacingTop=-5;align=center;verticalAlign=middle;fontStyle=0;html=1;fontSize=18;points=[]" parent="1" vertex="1">
          <mxGeometry x="2405.5" y="1240" width="30" height="84.5" as="geometry" />
        </mxCell>
        <mxCell id="lbe4m9ubsCiE2F9bmE8v-755" value="50" style="text;spacingTop=-5;align=center;verticalAlign=middle;fontStyle=0;html=1;fontSize=18;points=[]" parent="1" vertex="1">
          <mxGeometry x="2405.5" y="1160" width="30" height="84.5" as="geometry" />
        </mxCell>
        <mxCell id="lbe4m9ubsCiE2F9bmE8v-756" value="2018" style="text;spacingTop=-5;align=center;verticalAlign=middle;fontStyle=0;html=1;fontSize=18;points=[];strokeColor=none;" parent="1" vertex="1">
          <mxGeometry x="2760" y="1596.5" width="120" height="30" as="geometry" />
        </mxCell>
        <mxCell id="lbe4m9ubsCiE2F9bmE8v-757" value="2019" style="text;spacingTop=-5;align=center;verticalAlign=middle;fontStyle=0;html=1;fontSize=18;points=[];strokeColor=none;" parent="1" vertex="1">
          <mxGeometry x="2840" y="1596.5" width="120" height="30" as="geometry" />
        </mxCell>
        <mxCell id="lbe4m9ubsCiE2F9bmE8v-758" value="2020" style="text;spacingTop=-5;align=center;verticalAlign=middle;fontStyle=0;html=1;fontSize=18;points=[];strokeColor=none;" parent="1" vertex="1">
          <mxGeometry x="2922" y="1596.5" width="120" height="30" as="geometry" />
        </mxCell>
        <mxCell id="lbe4m9ubsCiE2F9bmE8v-759" value="2021" style="text;spacingTop=-5;align=center;verticalAlign=middle;fontStyle=0;html=1;fontSize=18;points=[];strokeColor=none;" parent="1" vertex="1">
          <mxGeometry x="3000" y="1596.5" width="120" height="30" as="geometry" />
        </mxCell>
        <mxCell id="lbe4m9ubsCiE2F9bmE8v-760" value="2022" style="text;spacingTop=-5;align=center;verticalAlign=middle;fontStyle=0;html=1;fontSize=18;points=[];strokeColor=none;" parent="1" vertex="1">
          <mxGeometry x="3080" y="1596.5" width="120" height="30" as="geometry" />
        </mxCell>
        <mxCell id="lbe4m9ubsCiE2F9bmE8v-761" value="2023" style="text;spacingTop=-5;align=center;verticalAlign=middle;fontStyle=0;html=1;fontSize=18;points=[];strokeColor=none;" parent="1" vertex="1">
          <mxGeometry x="3160" y="1596.5" width="120" height="30" as="geometry" />
        </mxCell>
        <mxCell id="lbe4m9ubsCiE2F9bmE8v-762" value="" style="rounded=1;whiteSpace=wrap;html=1;direction=south;fillColor=#3399FF;" parent="1" vertex="1">
          <mxGeometry x="2470.5" y="1490" width="50" height="106.5" as="geometry" />
        </mxCell>
        <mxCell id="lbe4m9ubsCiE2F9bmE8v-764" value="" style="rounded=1;whiteSpace=wrap;html=1;direction=south;fillColor=#007FFF;" parent="1" vertex="1">
          <mxGeometry x="2555.5" y="1480" width="50" height="116.5" as="geometry" />
        </mxCell>
        <mxCell id="lbe4m9ubsCiE2F9bmE8v-765" value="" style="rounded=1;whiteSpace=wrap;html=1;direction=south;fillColor=#007FFF;" parent="1" vertex="1">
          <mxGeometry x="2635" y="1450" width="50" height="146.5" as="geometry" />
        </mxCell>
        <mxCell id="lbe4m9ubsCiE2F9bmE8v-766" value="" style="rounded=1;whiteSpace=wrap;html=1;direction=south;fillStyle=auto;fillColor=#007FFF;" parent="1" vertex="1">
          <mxGeometry x="2715" y="1410" width="50" height="186.5" as="geometry" />
        </mxCell>
        <mxCell id="lbe4m9ubsCiE2F9bmE8v-767" value="" style="rounded=1;whiteSpace=wrap;html=1;direction=south;fillColor=#007FFF;" parent="1" vertex="1">
          <mxGeometry x="2795" y="1380" width="50" height="216.5" as="geometry" />
        </mxCell>
        <mxCell id="lbe4m9ubsCiE2F9bmE8v-768" value="" style="rounded=1;whiteSpace=wrap;html=1;direction=south;fillColor=#007FFF;" parent="1" vertex="1">
          <mxGeometry x="2875" y="1310" width="50" height="286.5" as="geometry" />
        </mxCell>
        <mxCell id="lbe4m9ubsCiE2F9bmE8v-769" value="" style="rounded=1;whiteSpace=wrap;html=1;direction=south;fillColor=#007FFF;" parent="1" vertex="1">
          <mxGeometry x="2957" y="1280" width="50" height="316.5" as="geometry" />
        </mxCell>
        <mxCell id="lbe4m9ubsCiE2F9bmE8v-770" value="" style="rounded=1;whiteSpace=wrap;html=1;direction=south;fillColor=#007FFF;" parent="1" vertex="1">
          <mxGeometry x="3035" y="1250" width="50" height="346.5" as="geometry" />
        </mxCell>
        <mxCell id="lbe4m9ubsCiE2F9bmE8v-771" value="" style="rounded=1;whiteSpace=wrap;html=1;direction=south;fillColor=#007FFF;" parent="1" vertex="1">
          <mxGeometry x="3115" y="1220" width="50" height="376.5" as="geometry" />
        </mxCell>
        <mxCell id="lbe4m9ubsCiE2F9bmE8v-772" value="" style="rounded=1;whiteSpace=wrap;html=1;direction=south;fillColor=#007FFF;" parent="1" vertex="1">
          <mxGeometry x="3195" y="1200" width="50" height="396.5" as="geometry" />
        </mxCell>
      </root>
    </mxGraphModel>
  </diagram>
</mxfile>
